<svg xmlns="http://www.w3.org/2000/svg" xmlns:xlink="http://www.w3.org/1999/xlink" width="375" zoomAndPan="magnify" viewBox="0 0 375 374.999991" height="374.999991" preserveAspectRatio="xMidYMid meet" version="1.0"><defs><clipPath id="id1"><path d="M 184 175 L 346.984375 175 L 346.984375 337.5 L 184 337.5 Z M 184 175 " clip-rule="nonzero"/></clipPath><clipPath id="id2"><path d="M 223 175 L 346.984375 175 L 346.984375 337.5 L 223 337.5 Z M 223 175 " clip-rule="nonzero"/></clipPath></defs><rect x="-37.5" width="450" fill="rgb(100%, 100%, 100%)" y="-37.499999" height="449.999989" fill-opacity="1"/><rect x="-37.5" width="450" fill="rgb(100%, 100%, 100%)" y="-37.499999" height="449.999989" fill-opacity="1"/><rect x="-37.5" width="450" fill="rgb(100%, 100%, 100%)" y="-37.499999" height="449.999989" fill-opacity="1"/><path fill="rgb(94.509888%, 28.239441%, 47.839355%)" d="M 242.5 128.40625 C 241.074219 118.847656 232.976562 112.125 224.414062 113.394531 C 222.140625 113.742188 220.058594 114.621094 218.257812 115.890625 L 218.214844 115.917969 C 216.945312 116.839844 215.800781 117.957031 214.824219 119.238281 C 204.796875 127.710938 198.21875 120.886719 196.347656 118.445312 L 189.535156 72.789062 L 143.011719 79.710938 C 139.601562 78.160156 133.082031 73.597656 137.789062 62.65625 C 138.738281 61.359375 139.476562 59.953125 139.980469 58.445312 L 140.007812 58.402344 L 139.992188 58.402344 C 140.691406 56.308594 140.929688 54.0625 140.59375 51.800781 C 139.324219 43.234375 130.527344 37.445312 120.949219 38.867188 C 111.382812 40.304688 104.652344 48.382812 105.921875 56.953125 C 106.257812 59.226562 107.152344 61.289062 108.421875 63.089844 L 108.410156 63.105469 L 108.449219 63.132812 C 109.371094 64.429688 110.488281 65.558594 111.773438 66.523438 C 119.46875 75.636719 114.554688 81.886719 111.746094 84.371094 L 65.222656 91.289062 L 71.882812 136.082031 L 71.753906 136.09375 C 71.753906 136.09375 68.417969 149.351562 53.996094 143.167969 C 52.695312 142.222656 51.285156 141.480469 49.792969 140.980469 L 49.734375 140.949219 C 47.640625 140.265625 45.40625 140.03125 43.132812 140.363281 C 34.558594 141.636719 28.773438 150.425781 30.195312 159.984375 C 31.625 169.554688 39.722656 176.28125 48.285156 174.996094 C 50.558594 174.664062 52.640625 173.785156 54.441406 172.515625 L 54.484375 172.472656 C 55.769531 171.566406 56.898438 170.433594 57.875 169.152344 C 69.855469 159.035156 76.90625 170.742188 76.90625 170.742188 L 77.046875 170.726562 L 83.722656 215.53125 L 128.542969 208.863281 C 128.542969 208.863281 141.808594 212.183594 135.609375 226.597656 C 134.675781 227.894531 133.933594 229.304688 133.429688 230.8125 L 133.402344 230.851562 L 133.417969 230.851562 C 132.71875 232.945312 132.46875 235.191406 132.816406 237.46875 C 134.085938 246.019531 142.882812 251.8125 152.449219 250.386719 C 162.027344 248.964844 168.757812 240.871094 167.472656 232.304688 C 167.136719 230.03125 166.257812 227.964844 164.972656 226.164062 L 164.988281 226.152344 L 164.945312 226.125 C 164.023438 224.839844 162.90625 223.695312 161.621094 222.734375 C 151.511719 210.761719 163.199219 203.714844 163.214844 203.699219 L 208.050781 197.03125 L 201.25 151.375 C 202.324219 148.484375 206.640625 140.058594 218.703125 145.234375 C 220.003906 146.183594 221.414062 146.921875 222.90625 147.425781 L 222.964844 147.453125 L 222.964844 147.441406 C 225.058594 148.136719 227.292969 148.375 229.566406 148.039062 C 238.140625 146.769531 243.921875 137.980469 242.5 128.40625 " fill-opacity="1" fill-rule="nonzero"/><path fill="rgb(85.099792%, 20.388794%, 42.749023%)" d="M 48.285156 174.996094 C 50.558594 174.664062 52.640625 173.785156 54.441406 172.515625 L 54.484375 172.472656 C 55.769531 171.566406 56.898438 170.433594 57.875 169.152344 C 69.855469 159.035156 76.90625 170.742188 76.90625 170.742188 L 77.046875 170.726562 L 83.722656 215.53125 L 128.542969 208.863281 C 128.542969 208.863281 141.808594 212.183594 135.609375 226.597656 C 134.675781 227.894531 133.933594 229.304688 133.429688 230.8125 L 133.402344 230.855469 L 133.417969 230.855469 C 132.71875 232.945312 132.46875 235.191406 132.816406 237.46875 C 134.085938 246.019531 142.882812 251.8125 152.449219 250.386719 C 162.027344 248.964844 168.757812 240.871094 167.472656 232.304688 C 167.136719 230.03125 166.257812 227.964844 164.972656 226.164062 L 164.988281 226.152344 L 164.945312 226.125 C 164.023438 224.839844 162.90625 223.695312 161.621094 222.734375 C 151.511719 210.761719 163.199219 203.714844 163.214844 203.699219 L 208.050781 197.03125 L 204.839844 175.445312 C 121.6875 169.972656 90.230469 122.558594 78.375 89.324219 L 65.222656 91.289062 L 71.882812 136.082031 L 71.753906 136.09375 C 71.753906 136.09375 68.417969 149.351562 53.996094 143.167969 C 52.695312 142.222656 51.285156 141.480469 49.792969 140.980469 L 49.734375 140.953125 C 47.640625 140.265625 45.40625 140.03125 43.132812 140.363281 C 34.558594 141.636719 28.773438 150.425781 30.195312 159.984375 C 31.625 169.554688 39.722656 176.28125 48.285156 174.996094 " fill-opacity="1" fill-rule="nonzero"/><g clip-path="url(#id1)"><path fill="rgb(48.239136%, 83.139038%, 21.179199%)" d="M 259.238281 191.40625 C 259.238281 191.40625 249.339844 200.824219 261.835938 210.3125 C 263.289062 210.984375 264.644531 211.847656 265.816406 212.910156 L 265.859375 212.9375 L 265.84375 212.9375 C 267.476562 214.417969 268.804688 216.246094 269.628906 218.394531 C 272.726562 226.472656 267.925781 235.835938 258.890625 239.296875 C 249.855469 242.769531 240.011719 239.03125 236.914062 230.953125 C 236.074219 228.800781 235.835938 226.570312 236.046875 224.378906 L 236.0625 224.324219 C 236.226562 222.761719 236.632812 221.210938 237.289062 219.746094 C 240.195312 204.34375 226.523438 203.964844 226.523438 203.964844 L 184.214844 220.207031 L 200.46875 262.484375 C 200.46875 262.484375 209.90625 272.378906 219.402344 259.90625 C 220.074219 258.441406 220.9375 257.085938 221.984375 255.914062 L 222.027344 255.871094 L 222.027344 255.886719 C 223.507812 254.253906 225.335938 252.941406 227.488281 252.105469 C 235.570312 249.007812 244.941406 253.808594 248.40625 262.847656 C 251.882812 271.863281 248.140625 281.699219 240.054688 284.8125 C 237.902344 285.636719 235.671875 285.886719 233.476562 285.664062 L 233.421875 285.648438 C 231.859375 285.496094 230.308594 285.0625 228.828125 284.433594 C 213.414062 281.519531 213.035156 295.179688 213.035156 295.179688 L 229.289062 337.457031 L 346.621094 292.417969 L 301.5625 175.164062 L 259.238281 191.40625 " fill-opacity="1" fill-rule="nonzero"/></g><path fill="rgb(63.139343%, 74.508667%, 86.669922%)" d="M 295.90625 177.328125 L 301.5625 175.164062 L 295.90625 177.328125 " fill-opacity="1" fill-rule="nonzero"/><g clip-path="url(#id2)"><path fill="rgb(42.749023%, 70.588684%, 21.179199%)" d="M 229.289062 337.457031 L 223.046875 321.203125 C 252.566406 312.859375 313.890625 282.664062 295.90625 177.328125 L 301.5625 175.164062 L 346.621094 292.417969 L 229.289062 337.457031 " fill-opacity="1" fill-rule="nonzero"/></g></svg>