<svg xmlns="http://www.w3.org/2000/svg" xmlns:xlink="http://www.w3.org/1999/xlink" width="375" zoomAndPan="magnify" viewBox="0 0 375 374.999991" height="374.999991" preserveAspectRatio="xMidYMid meet" version="1.0"><defs><clipPath id="id1"><path d="M 31.183594 30.980469 L 343.933594 30.980469 L 343.933594 343.730469 L 31.183594 343.730469 Z M 31.183594 30.980469 " clip-rule="nonzero"/></clipPath><clipPath id="id2"><path d="M 31.183594 30.980469 L 188 30.980469 L 188 343.730469 L 31.183594 343.730469 Z M 31.183594 30.980469 " clip-rule="nonzero"/></clipPath></defs><rect x="-37.5" width="450" fill="rgb(100%, 100%, 100%)" y="-37.499999" height="449.999989" fill-opacity="1"/><rect x="-37.5" width="450" fill="rgb(100%, 100%, 100%)" y="-37.499999" height="449.999989" fill-opacity="1"/><rect x="-37.5" width="450" fill="rgb(100%, 100%, 100%)" y="-37.499999" height="449.999989" fill-opacity="1"/><g clip-path="url(#id1)"><path fill="rgb(100%, 37.249756%, 37.249756%)" d="M 343.890625 195.515625 C 343.890625 171.683594 328.664062 151.410156 307.402344 143.847656 C 312.152344 135.726562 314.894531 126.289062 314.894531 116.210938 C 314.894531 85.925781 290.300781 61.371094 259.972656 61.371094 C 252.488281 61.371094 245.363281 62.867188 238.859375 65.574219 C 230.789062 45.3125 210.988281 30.980469 187.828125 30.980469 C 164.453125 30.980469 144.503906 45.566406 136.578125 66.117188 C 129.75 63.074219 122.191406 61.371094 114.230469 61.371094 C 83.898438 61.371094 59.3125 85.925781 59.3125 116.210938 C 59.3125 126.40625 62.105469 135.945312 66.957031 144.121094 C 46.089844 151.894531 31.226562 171.96875 31.226562 195.515625 C 31.226562 216.84375 43.425781 235.308594 61.222656 244.378906 C 59.984375 248.960938 59.3125 253.765625 59.3125 258.726562 C 59.3125 289.015625 83.898438 313.570312 114.230469 313.570312 C 122.222656 313.570312 129.804688 311.855469 136.652344 308.789062 C 144.632812 329.234375 164.523438 343.730469 187.828125 343.730469 C 210.910156 343.730469 230.664062 329.496094 238.78125 309.335938 C 245.304688 312.0625 252.464844 313.570312 259.972656 313.570312 C 290.300781 313.570312 314.894531 289.015625 314.894531 258.726562 C 314.894531 253.910156 314.265625 249.238281 313.09375 244.789062 C 331.328125 235.867188 343.890625 217.160156 343.890625 195.515625 " fill-opacity="1" fill-rule="nonzero"/></g><path fill="rgb(100%, 100%, 100%)" d="M 103.101562 205.542969 C 121.324219 223.394531 139.542969 241.25 157.765625 259.101562 C 163.328125 264.5625 172.453125 264.648438 178.007812 259.101562 C 199.523438 237.617188 221.035156 216.128906 242.554688 194.644531 C 254.730469 182.480469 266.910156 170.324219 279.082031 158.160156 C 284.597656 152.652344 284.597656 143.449219 279.082031 137.941406 C 273.566406 132.429688 264.351562 132.429688 258.832031 137.941406 L 194.292969 202.398438 C 182.113281 214.558594 169.9375 226.722656 157.765625 238.878906 L 178.007812 238.878906 L 123.347656 185.320312 C 117.78125 179.863281 108.65625 179.773438 103.101562 185.320312 C 97.621094 190.792969 97.53125 200.085938 103.101562 205.542969 " fill-opacity="1" fill-rule="nonzero"/><path fill="rgb(96.078491%, 96.078491%, 96.078491%)" d="M 114.230469 313.570312 C 103.703125 313.570312 93.875 310.621094 85.523438 305.492188 C 93.875 310.621094 103.703125 313.570312 114.230469 313.570312 M 127.171875 312.03125 C 130.457031 311.238281 133.628906 310.144531 136.652344 308.789062 C 136.664062 308.816406 136.679688 308.847656 136.691406 308.878906 C 136.679688 308.847656 136.664062 308.816406 136.652344 308.789062 C 133.628906 310.144531 130.457031 311.238281 127.171875 312.03125 M 66.957031 144.121094 C 64.8125 140.507812 63.070312 136.628906 61.792969 132.542969 C 63.070312 136.628906 64.8125 140.507812 66.957031 144.121094 M 85.523438 69.453125 C 93.875 64.328125 103.703125 61.371094 114.230469 61.371094 C 103.703125 61.371094 93.875 64.328125 85.523438 69.453125 M 136.578125 66.121094 C 137.542969 63.605469 138.695312 61.183594 140.007812 58.863281 C 138.695312 61.183594 137.542969 63.605469 136.578125 66.121094 " fill-opacity="1" fill-rule="nonzero"/><g clip-path="url(#id2)"><path fill="rgb(98.039246%, 33.729553%, 33.729553%)" d="M 187.558594 343.722656 C 164.410156 343.617188 144.664062 329.195312 136.691406 308.878906 C 136.679688 308.847656 136.664062 308.816406 136.652344 308.789062 C 133.628906 310.144531 130.457031 311.238281 127.171875 312.03125 C 123.023438 313.035156 118.691406 313.570312 114.230469 313.570312 C 103.703125 313.570312 93.875 310.621094 85.523438 305.492188 C 69.800781 295.847656 59.3125 278.511719 59.3125 258.726562 C 59.3125 253.765625 59.984375 248.960938 61.222656 244.378906 C 44.238281 235.730469 32.359375 218.519531 31.304688 198.433594 C 31.25 197.464844 31.226562 196.492188 31.226562 195.515625 C 31.226562 171.96875 46.089844 151.894531 66.957031 144.121094 C 64.8125 140.507812 63.070312 136.628906 61.792969 132.542969 C 60.183594 127.382812 59.3125 121.898438 59.3125 116.210938 C 59.3125 96.4375 69.800781 79.097656 85.523438 69.449219 C 93.875 64.324219 103.703125 61.371094 114.230469 61.371094 C 122.191406 61.371094 129.75 63.074219 136.578125 66.117188 C 137.542969 63.605469 138.695312 61.179688 140.007812 58.859375 C 149.390625 42.292969 167.160156 31.082031 187.558594 30.984375 L 187.558594 209.125 C 180.964844 215.703125 174.378906 222.285156 167.789062 228.863281 L 123.347656 185.320312 C 120.554688 182.582031 116.855469 181.195312 113.171875 181.195312 C 109.519531 181.195312 105.867188 182.554688 103.101562 185.320312 C 97.621094 190.792969 97.53125 200.082031 103.101562 205.542969 C 121.324219 223.390625 139.542969 241.25 157.765625 259.101562 C 160.558594 261.839844 164.25 263.226562 167.933594 263.226562 C 171.59375 263.226562 175.238281 261.863281 178.007812 259.101562 C 181.195312 255.921875 184.378906 252.746094 187.558594 249.570312 L 187.558594 343.722656 " fill-opacity="1" fill-rule="nonzero"/></g><path fill="rgb(96.078491%, 96.078491%, 96.078491%)" d="M 167.933594 263.226562 C 164.25 263.226562 160.558594 261.839844 157.765625 259.101562 C 139.542969 241.25 121.324219 223.394531 103.101562 205.542969 C 97.53125 200.085938 97.621094 190.792969 103.101562 185.320312 C 105.867188 182.558594 109.519531 181.199219 113.171875 181.199219 C 116.855469 181.199219 120.554688 182.582031 123.347656 185.320312 L 167.789062 228.867188 C 174.378906 222.289062 180.964844 215.703125 187.558594 209.128906 L 187.558594 249.570312 C 184.378906 252.746094 181.195312 255.925781 178.007812 259.101562 C 175.238281 261.867188 171.59375 263.226562 167.933594 263.226562 " fill-opacity="1" fill-rule="nonzero"/></svg>